<svg width="156" height="136" viewBox="0 0 156 136" fill="none" xmlns="http://www.w3.org/2000/svg">
<path d="M9.6755 91.9052L48.3729 33.859H105.21L76.1867 65.3007L61.6751 68.9286H72.5588H110.047L3.62903 135.44L39.9078 87.068L9.6755 91.9052Z" fill="#00C2FF"/>
<path d="M0 0L105.208 33.8603L51.9995 50.7904L0 0Z" fill="#00C2FF"/>
<path d="M85.8611 62.8836L112.466 36.2791L156 53.2092L85.8611 62.8836Z" fill="#00C2FF"/>
<path d="M66.3455 13.0884C67.1676 10.6842 68.4552 8.4654 70.1348 6.55879C71.8144 4.65217 73.8531 3.09505 76.1345 1.97632C78.4158 0.857591 80.8952 0.199171 83.431 0.0386493C85.9669 -0.121872 88.5095 0.21865 90.9137 1.04077C93.3179 1.86289 95.5367 3.15052 97.4433 4.83012C99.3499 6.50973 100.907 8.54842 102.026 10.8298C103.144 13.1112 103.803 15.5906 103.963 18.1264C104.124 20.6623 103.783 23.2049 102.961 25.6091L84.6534 19.3488L66.3455 13.0884Z" fill="#00C2FF"/>
</svg>
